<svg xmlns="http://www.w3.org/2000/svg" viewBox="0 0 63.9 63.79"><defs><style>.cls-1{fill:#017712;}.cls-2{fill:#fcfdfc;}</style></defs><title>资源 1</title><g id="图层_2" data-name="图层 2"><g id="图层_1-2" data-name="图层 1"><path class="cls-1" d="M63.9,63.79H0V0H63.9Zm-8.21-15.1H43.34c2.16-4.4.66-10.32,7.34-10.29V20H12.89V38.48c5,.86,6.38,3,6.66,10.45H8.12v4.7H55.69Zm-.9-38.57h-46l.28,4.43H54.79Z"/><path class="cls-2" d="M55.69,48.69v4.93H8.12v-4.7H19.56c-.28-7.4-1.65-9.59-6.66-10.45V20H50.68V38.4c-6.68,0-5.18,5.89-7.34,10.29ZM20.09,33.47H43.67V25.06H20.09ZM24,39.05c2.4,10,2.4,10.06,9.8,9.77,6.74-.26,3.59-6.5,6.89-9.77Z"/><path class="cls-2" d="M54.79,10.12v4.43h-46V10.12Z"/><path class="cls-1" d="M20.09,33.47V25.06H43.67v8.42Z"/><path class="cls-1" d="M24,39.05H40.71c-3.3,3.27-.15,9.51-6.89,9.77C26.43,49.11,26.43,49.08,24,39.05Z"/></g></g></svg>